# xmcd CD database file
# Generated: Sam Jan 11 09:20:06 2003 by KSCD
# 
# Track frame offsets:
#       150
#       14387
#       28793
#       39249
#       52563
#       66904
#       81162
#       97393
#       110991
#       126968
#       142809
#       159333
#       176334
#       192465
#       207976
#       221805
#       235284
#       248950
#       260820
#       274377
#       286877
#       299315
#       313202
#       327098
#       341263
#
# Disc length: 4736 seconds
#
# Revision: 2
# Processed by: cddbd v1.4PL0 Copyright (c) Steve Scherf et al.
# Submitted via: Kscd 1.3.3
#
DISCID=83127e19
DTITLE=John Lee Hooker - The Classic Early Years 1948 - 1951 CD 1
DYEAR=1900
DGENRE=
TTITLE0=Boogie Chillen
TTITLE1=Sally Mae
TTITLE2=See See Baby
TTITLE3=She Was In Chicago
TTITLE4=Stomp Boogie
TTITLE5=Who's Been Jiving You
TTITLE6=Black Man Blues
TTITLE7=Poor Joe
TTITLE8=Good Business
TTITLE9=Boogie Woogie
TTITLE10=Helpless Bogie
TTITLE11=Goin' Mad Blues
TTITLE12=Low Down Midnite Boggie
TTITLE13=Landing Blues
TTITLE14=Morning Blues
TTITLE15=Drifting From Door To Door
TTITLE16=Hobo Blues
TTITLE17=Howlin' Wolf
TTITLE18=Crawling King Snake
TTITLE19=She Ain't Good For Nothin'
TTITLE20=Cotton Pickin' Blues
TTITLE21=Must I Wait Til Your Man Is Gone
TTITLE22=We Gonna Make Everything Alright
TTITLE23=Miss Rosie Mae
TTITLE24=Highway Blues
EXTD=JSP Records JSPCD7703A
EXTT0=
EXTT1=First Recording by B. Besman
EXTT2=
EXTT3=
EXTT4=
EXTT5=
EXTT6=
EXTT7=
EXTT8=
EXTT9=
EXTT10=
EXTT11=
EXTT12=
EXTT13=
EXTT14=
EXTT15=
EXTT16=
EXTT17=
EXTT18=
EXTT19=
EXTT20=
EXTT21=with James Watkins pno.
EXTT22=with James Watkins pno.
EXTT23=with James Watkins pno.
EXTT24=
PLAYORDER=
